<mxfile host="Electron" agent="Mozilla/5.0 (Windows NT 10.0; Win64; x64) AppleWebKit/537.36 (KHTML, like Gecko) draw.io/26.0.9 Chrome/128.0.6613.186 Electron/32.2.5 Safari/537.36" version="26.0.9">
  <diagram name="Leht-1" id="xhUwCWPVqTI-aY92REC8">
    <mxGraphModel dx="782" dy="913" grid="1" gridSize="10" guides="1" tooltips="1" connect="1" arrows="1" fold="1" page="1" pageScale="1" pageWidth="827" pageHeight="1169" math="0" shadow="0">
      <root>
        <mxCell id="0" />
        <mxCell id="1" parent="0" />
        <mxCell id="6-wBVqh4o1lOcAQjsX2Q-6" style="edgeStyle=orthogonalEdgeStyle;rounded=0;orthogonalLoop=1;jettySize=auto;html=1;entryX=0.5;entryY=0;entryDx=0;entryDy=0;" edge="1" parent="1" source="6-wBVqh4o1lOcAQjsX2Q-1" target="6-wBVqh4o1lOcAQjsX2Q-3">
          <mxGeometry relative="1" as="geometry" />
        </mxCell>
        <mxCell id="6-wBVqh4o1lOcAQjsX2Q-1" value="ALGUS" style="strokeWidth=2;html=1;shape=mxgraph.flowchart.start_1;whiteSpace=wrap;" vertex="1" parent="1">
          <mxGeometry x="350" y="60" width="100" height="60" as="geometry" />
        </mxCell>
        <mxCell id="6-wBVqh4o1lOcAQjsX2Q-2" value="LÃ•PP" style="strokeWidth=2;html=1;shape=mxgraph.flowchart.terminator;whiteSpace=wrap;" vertex="1" parent="1">
          <mxGeometry x="650" y="630" width="100" height="60" as="geometry" />
        </mxCell>
        <mxCell id="6-wBVqh4o1lOcAQjsX2Q-3" value="&lt;div&gt;&amp;nbsp; &amp;nbsp; &amp;nbsp; &amp;nbsp; Console.Write(&quot;Input number of terms to be displayed: &quot;);&lt;/div&gt;&lt;div&gt;&amp;nbsp; &amp;nbsp; &amp;nbsp; &amp;nbsp; int prv = 0, pre = 1, trm, i, n = Convert.ToInt32(Console.ReadLine());&lt;/div&gt;" style="rounded=1;whiteSpace=wrap;html=1;absoluteArcSize=1;arcSize=14;strokeWidth=2;" vertex="1" parent="1">
          <mxGeometry x="205" y="190" width="390" height="100" as="geometry" />
        </mxCell>
        <mxCell id="6-wBVqh4o1lOcAQjsX2Q-15" value="TRUE" style="edgeStyle=orthogonalEdgeStyle;rounded=0;orthogonalLoop=1;jettySize=auto;html=1;entryX=0;entryY=0.5;entryDx=0;entryDy=0;entryPerimeter=0;" edge="1" parent="1" source="6-wBVqh4o1lOcAQjsX2Q-5" target="6-wBVqh4o1lOcAQjsX2Q-8">
          <mxGeometry relative="1" as="geometry">
            <mxPoint x="160" y="705" as="targetPoint" />
            <Array as="points">
              <mxPoint x="200" y="865" />
              <mxPoint x="200" y="660" />
            </Array>
          </mxGeometry>
        </mxCell>
        <mxCell id="6-wBVqh4o1lOcAQjsX2Q-5" value="trm = prv + pre;&#xa;Console.Write(&quot; {0} &quot;, trm);&#xa;prv = pre;&#xa;pre = trm;" style="rounded=1;whiteSpace=wrap;html=1;absoluteArcSize=1;arcSize=14;strokeWidth=2;" vertex="1" parent="1">
          <mxGeometry x="320" y="810" width="160" height="110" as="geometry" />
        </mxCell>
        <mxCell id="6-wBVqh4o1lOcAQjsX2Q-13" value="TRUE" style="edgeStyle=orthogonalEdgeStyle;rounded=0;orthogonalLoop=1;jettySize=auto;html=1;entryX=0.5;entryY=0;entryDx=0;entryDy=0;" edge="1" parent="1" source="6-wBVqh4o1lOcAQjsX2Q-8" target="6-wBVqh4o1lOcAQjsX2Q-5">
          <mxGeometry relative="1" as="geometry" />
        </mxCell>
        <mxCell id="6-wBVqh4o1lOcAQjsX2Q-8" value="for (i = 3; i &amp;lt;= n; i++)" style="strokeWidth=2;html=1;shape=mxgraph.flowchart.decision;whiteSpace=wrap;" vertex="1" parent="1">
          <mxGeometry x="305" y="610" width="190" height="100" as="geometry" />
        </mxCell>
        <mxCell id="6-wBVqh4o1lOcAQjsX2Q-9" value="FALSE" style="edgeStyle=orthogonalEdgeStyle;rounded=0;orthogonalLoop=1;jettySize=auto;html=1;entryX=0;entryY=0.5;entryDx=0;entryDy=0;entryPerimeter=0;" edge="1" parent="1" source="6-wBVqh4o1lOcAQjsX2Q-8" target="6-wBVqh4o1lOcAQjsX2Q-2">
          <mxGeometry relative="1" as="geometry" />
        </mxCell>
        <mxCell id="6-wBVqh4o1lOcAQjsX2Q-16" style="edgeStyle=orthogonalEdgeStyle;rounded=0;orthogonalLoop=1;jettySize=auto;html=1;entryX=0.5;entryY=0;entryDx=0;entryDy=0;entryPerimeter=0;" edge="1" parent="1" source="6-wBVqh4o1lOcAQjsX2Q-3" target="6-wBVqh4o1lOcAQjsX2Q-8">
          <mxGeometry relative="1" as="geometry" />
        </mxCell>
      </root>
    </mxGraphModel>
  </diagram>
</mxfile>
